<svg width="92" height="21" viewBox="0 0 92 21" fill="none" xmlns="http://www.w3.org/2000/svg">
<g clip-path="url(#clip0_10389_27508)">
<path d="M17.2402 21H3.76191C1.68323 21 0 19.3168 0 17.2402V3.7619C0 1.68323 1.68323 0 3.76191 0H17.2402C19.3168 0 21.0021 1.68323 21.0021 3.7619V17.2402C21 19.3168 19.3168 21 17.2402 21Z" fill="white"/>
<path d="M10.3768 7.41821H9.25671V8.53829H10.3768V7.41821Z" fill="url(#paint0_linear_10389_27508)"/>
<path d="M11.911 8.95026H10.7909V10.0703H11.911V8.95026Z" fill="url(#paint1_linear_10389_27508)"/>
<path d="M10.3768 8.95026H9.25671V10.0703H10.3768V8.95026Z" fill="url(#paint2_linear_10389_27508)"/>
<path d="M8.18634 10.8633C7.65424 10.8633 7.2236 11.2961 7.2236 11.8282C7.2236 12.3603 7.65632 12.7909 8.18841 12.7909C8.7205 12.7909 9.15114 12.3603 9.15114 11.8282C9.15114 11.8282 9.15114 11.8282 9.15114 11.8261C9.14907 11.294 8.71843 10.8633 8.18634 10.8633Z" fill="url(#paint3_linear_10389_27508)"/>
<path d="M12.9814 12.7888C13.5135 12.7888 13.9441 12.3582 13.9441 11.8261C13.9441 11.8261 13.9441 11.8261 13.9441 11.824C13.9441 11.2919 13.5135 10.8613 12.9814 10.8613C12.4493 10.8613 12.0186 11.2919 12.0186 11.824C12.0186 12.3582 12.4493 12.7888 12.9814 12.7888Z" fill="url(#paint4_linear_10389_27508)"/>
<path d="M10.5838 13.1842C11.0675 13.1842 11.4596 12.7921 11.4596 12.3085C11.4596 11.8248 11.0675 11.4327 10.5838 11.4327C10.1002 11.4327 9.70807 11.8248 9.70807 12.3085C9.70807 12.7921 10.1002 13.1842 10.5838 13.1842Z" fill="url(#paint5_linear_10389_27508)"/>
<path d="M19.8323 2.27534C18.9441 3.05174 18.0828 3.70391 17.3126 4.19667L17.6128 4.49687L17.2464 4.99377L16.8716 4.65836L15.1988 7.35402C15.1988 7.35402 14.1325 7.52379 13.3209 7.75153C12.8406 7.88611 11.8592 8.23393 11.2961 8.41406L13.6749 6.02275C13.7101 5.98756 13.7598 5.9772 13.8075 5.99377C14.0435 6.08486 14.3747 6.04346 14.5714 5.81778C14.7971 5.55691 14.7702 5.10143 14.5259 4.85712C14.2816 4.61281 13.8344 4.58797 13.5921 4.82607C13.4161 4.99998 13.3561 5.28362 13.3996 5.52586C13.4203 5.60246 13.3975 5.68321 13.3437 5.73911L11.0041 8.06002C11.1843 7.49687 11.501 6.59832 11.6294 6.12006C11.8613 5.26913 12.0807 4.19252 12.0807 4.19252L14.7557 2.51758L14.3934 2.14905L14.8903 1.78259L15.1905 2.08279C15.4783 1.63145 15.824 1.14905 16.2133 0.64801H4.09731C2.19048 0.64801 0.645966 2.19252 0.645966 4.09936V16.9047C0.645966 18.8116 2.19048 20.3561 4.09731 20.3561H16.9027C18.8095 20.3561 20.354 18.8116 20.354 16.9047V4.09729C20.354 3.42855 20.1636 2.80329 19.8323 2.27534ZM11.2795 5.9565C11.1905 6.28155 11.0083 6.82607 10.8468 7.3064C10.8344 7.34366 10.824 7.38093 10.8116 7.41613H10.7909V7.48031C10.7474 7.62731 10.7081 7.77638 10.677 7.93994C10.646 8.12213 10.646 8.29397 10.7909 8.49894V8.53414H10.8178C10.942 8.68735 11.0414 8.73911 11.2133 8.77017C11.3002 8.77845 11.3872 8.77431 11.4741 8.75567C11.6729 8.69149 11.9213 8.60867 12.1843 8.51965C12.6522 8.3623 13.1822 8.18217 13.4845 8.09729C13.9275 7.97306 14.4555 7.8654 14.8302 7.79501V14.9337H14.5507V14.3954C14.5466 13.6004 13.9048 12.9586 13.1097 12.9544H12.9896C12.4141 12.9565 11.8944 13.2981 11.6667 13.8281C11.4182 13.5134 11.0414 13.3292 10.6398 13.3271H10.53C10.1284 13.3271 9.75155 13.5134 9.50311 13.8281C9.27536 13.3002 8.7557 12.9565 8.18013 12.9544H8.06004C7.26501 12.9565 6.62319 13.6004 6.61905 14.3934V14.9317H6.34162V7.74532L10.5859 4.61903L11.4576 5.26085C11.3996 5.49273 11.3395 5.7329 11.2795 5.9565ZM19.0393 8.04553C18.677 8.49066 18.6025 9.02896 18.5528 9.57141C18.5031 10.1221 18.472 10.6749 18.4306 11.2257C18.4161 11.443 18.383 11.6604 18.3313 11.8716C18.205 12.383 18.0021 12.8364 17.4265 13.0021C17.501 13.0911 17.5735 13.1635 17.6294 13.2443C17.8282 13.5341 17.8613 13.853 17.7743 14.1905C17.6584 14.6459 17.3934 15.0269 17.1408 15.412C16.7971 15.9379 16.4037 16.4327 16.1222 16.9979C15.9793 17.2857 15.8716 17.5859 15.8592 17.911C15.8571 17.9689 15.853 18.0124 15.7743 17.9834C15.2816 17.7909 14.7847 17.8737 14.2899 17.971C13.648 18.0973 13.0269 18.3105 12.383 18.4286C12.2381 18.4555 12.0932 18.4803 11.9462 18.4927C11.4265 18.5383 10.94 18.4824 10.5963 18.0269C10.5445 18.0455 10.5404 18.0849 10.5238 18.1139C10.2857 18.5404 9.90062 18.6915 9.43892 18.6832C8.94203 18.6729 8.46998 18.5321 7.99793 18.3934C7.45756 18.2339 6.92547 18.0497 6.36439 17.9751C6.06211 17.9358 5.75984 17.9275 5.45963 18.0103C5.41201 18.0228 5.35404 18.0559 5.36025 17.9606C5.38924 17.472 5.19462 17.0497 4.97102 16.6356C4.66874 16.0683 4.28572 15.5486 3.96481 14.9896C3.75777 14.6273 3.56729 14.2608 3.5176 13.8364C3.48447 13.5776 3.54452 13.3147 3.68737 13.0973C3.72257 13.0414 3.76812 12.9938 3.65632 12.9772C3.09524 12.8902 2.83023 12.5134 2.6998 12.0021C2.56936 11.4907 2.57557 10.9669 2.56108 10.4451C2.54452 9.86747 2.55073 9.28776 2.4058 8.72255C2.35404 8.50515 2.26501 8.29812 2.14286 8.11178C2.11387 8.06623 2.08903 8.03311 2.16149 8.0124C2.67702 7.87368 3.04141 7.52172 3.37681 7.13662C3.78675 6.66665 4.18427 6.18424 4.59421 5.71426C4.7971 5.47203 5.03313 5.26085 5.29607 5.089C5.60042 4.89646 5.9234 4.80743 6.28158 4.91509C6.35404 4.93787 6.38302 4.93373 6.36853 4.84263C6.28572 4.30018 6.54037 3.92544 6.97723 3.64801C7.43064 3.36023 7.93789 3.18217 8.43685 3.0124C8.93582 2.84263 9.43685 2.67286 9.89855 2.41199C10.1594 2.2712 10.3851 2.07658 10.5652 1.84056C10.8116 2.22772 11.1698 2.46168 11.5673 2.66043C11.9648 2.85919 12.383 3.01447 12.7971 3.17596L11.913 3.72669C11.8157 3.78673 11.7474 3.88611 11.7246 3.99791C11.7246 4.00205 11.6853 4.19252 11.6232 4.47203L10.5839 3.70598L4.14286 8.45547L4.28986 9.236H5.3499V8.45547H5.6087V15.6687H15.5611V8.45547H15.8199V9.236H16.8799L17.0269 8.45547L15.6294 7.42648L16.7412 5.63145C17.0683 6.01447 17.354 6.42855 17.6729 6.81778C17.8489 7.04139 18.0373 7.25464 18.2381 7.45547C18.4596 7.66872 18.6998 7.85298 18.9917 7.95857C19.0352 7.97099 19.0911 7.98342 19.0393 8.04553Z" fill="url(#paint6_linear_10389_27508)"/>
</g>
<path d="M29.8221 15.12C29.3187 15.12 28.8521 14.985 28.4221 14.715C27.9921 14.4417 27.6454 14.0267 27.3821 13.47C27.1221 12.9133 26.9921 12.23 26.9921 11.42C26.9921 10.6833 27.1221 10.0517 27.3821 9.525C27.6421 8.995 27.9937 8.59333 28.4371 8.32C28.8837 8.04667 29.3821 7.91 29.9321 7.91C30.2687 7.91 30.5537 7.94333 30.7871 8.01C31.0204 8.07333 31.2037 8.14833 31.3371 8.235C31.4704 8.31833 31.5987 8.41667 31.7221 8.53L31.1621 9.58C31.0454 9.45333 30.9421 9.35667 30.8521 9.29C30.7621 9.22 30.6471 9.165 30.5071 9.125C30.3704 9.08167 30.1954 9.06 29.9821 9.06C29.6487 9.06 29.3621 9.15833 29.1221 9.355C28.8821 9.54833 28.6987 9.81833 28.5721 10.165C28.4454 10.5083 28.3821 10.9033 28.3821 11.35C28.3821 11.91 28.4471 12.3883 28.5771 12.785C28.7104 13.1817 28.8887 13.48 29.1121 13.68C29.3387 13.88 29.5921 13.98 29.8721 13.98C30.1687 13.98 30.4304 13.9383 30.6571 13.855C30.8871 13.7717 31.0621 13.6667 31.1821 13.54L31.7321 14.53C31.5287 14.6967 31.2821 14.8367 30.9921 14.95C30.7054 15.0633 30.3154 15.12 29.8221 15.12ZM35.9855 13.99H33.4955L33.1255 15H31.7255L34.6755 7.91H34.7755L37.7355 15H36.3755L35.9855 13.99ZM35.6155 13.02L34.8855 11.12L34.7155 10.56L34.5555 11.12L33.8555 13.02H35.6155ZM41.4693 15L39.6793 12.48V15H38.4093V8.03H40.3493C42.0027 8.03 42.8293 8.77 42.8293 10.25C42.8293 10.58 42.776 10.905 42.6693 11.225C42.5627 11.5417 42.3877 11.8233 42.1443 12.07C41.9043 12.3167 41.596 12.4867 41.2193 12.58L43.0193 15H41.4693ZM40.2093 11.85C40.4927 11.85 40.7343 11.7833 40.9343 11.65C41.1377 11.5133 41.291 11.3333 41.3943 11.11C41.4977 10.8833 41.5493 10.6367 41.5493 10.37C41.5493 9.91 41.4427 9.57167 41.2293 9.355C41.0193 9.13833 40.6693 9.03 40.1793 9.03H39.6793V11.85H40.2093ZM44.1508 8.03H45.4308V15H44.1508V8.03ZM50.6012 15L48.3512 11.655V15H47.0812V8.03H48.3512V11.5L50.5712 8.03H52.0412L49.6662 11.49L52.2012 15H50.6012ZM55.2925 15.15C55.1059 15.15 54.8775 15.1167 54.6075 15.05C54.3409 14.9867 54.1492 14.9133 54.0325 14.83L54.5125 13.64C54.5959 13.7633 54.7025 13.8617 54.8325 13.935C54.9659 14.005 55.0992 14.04 55.2325 14.04C55.3992 14.04 55.5409 14.02 55.6575 13.98C55.7742 13.9367 55.8725 13.8417 55.9525 13.695C56.0325 13.545 56.0725 13.3233 56.0725 13.03V8.03H57.3725V12.91C57.3725 13.5933 57.2109 14.1383 56.8875 14.545C56.5642 14.9483 56.0325 15.15 55.2925 15.15ZM62.1964 13.99H59.7064L59.3364 15H57.9364L60.8864 7.91H60.9864L63.9464 15H62.5864L62.1964 13.99ZM61.8264 13.02L61.0964 11.12L60.9264 10.56L60.7664 11.12L60.0664 13.02H61.8264ZM68.1403 15L65.8903 11.655V15H64.6203V8.03H65.8903V11.5L68.1103 8.03H69.5803L67.2053 11.49L69.7403 15H68.1403ZM73.8273 13.99H71.3373L70.9673 15H69.5673L72.5173 7.91H72.6173L75.5773 15H74.2173L73.8273 13.99ZM73.4573 13.02L72.7273 11.12L72.5573 10.56L72.3973 11.12L71.6973 13.02H73.4573ZM79.3111 15L77.5211 12.48V15H76.2511V8.03H78.1911C79.8445 8.03 80.6711 8.77 80.6711 10.25C80.6711 10.58 80.6178 10.905 80.5111 11.225C80.4045 11.5417 80.2295 11.8233 79.9861 12.07C79.7461 12.3167 79.4378 12.4867 79.0611 12.58L80.8611 15H79.3111ZM78.0511 11.85C78.3345 11.85 78.5761 11.7833 78.7761 11.65C78.9795 11.5133 79.1328 11.3333 79.2361 11.11C79.3395 10.8833 79.3911 10.6367 79.3911 10.37C79.3911 9.91 79.2845 9.57167 79.0711 9.355C78.8611 9.13833 78.5111 9.03 78.0211 9.03H77.5211V11.85H78.0511ZM85.8726 9.16H84.2626V15H82.9726V9.16H81.3626V8.03H85.8726V9.16ZM89.7941 13.99H87.3041L86.9341 15H85.5341L88.4841 7.91H88.5841L91.5441 15H90.1841L89.7941 13.99ZM89.4241 13.02L88.6941 11.12L88.5241 10.56L88.3641 11.12L87.6641 13.02H89.4241Z" fill="#268FCE"/>
<defs>
<linearGradient id="paint0_linear_10389_27508" x1="9.43517" y1="7.31491" x2="10.2003" y2="8.64014" gradientUnits="userSpaceOnUse">
<stop offset="0.0350736" stop-color="#40A8D9"/>
<stop offset="0.4495" stop-color="#69D4F9"/>
<stop offset="0.6095" stop-color="#65D0F7"/>
<stop offset="0.7711" stop-color="#59C5F0"/>
<stop offset="0.9329" stop-color="#45B2E4"/>
<stop offset="1" stop-color="#3AA8DE"/>
</linearGradient>
<linearGradient id="paint1_linear_10389_27508" x1="10.9692" y1="8.84841" x2="11.7339" y2="10.1728" gradientUnits="userSpaceOnUse">
<stop offset="0.0350736" stop-color="#40A8D9"/>
<stop offset="0.4495" stop-color="#69D4F9"/>
<stop offset="0.6095" stop-color="#65D0F7"/>
<stop offset="0.7711" stop-color="#59C5F0"/>
<stop offset="0.9329" stop-color="#45B2E4"/>
<stop offset="1" stop-color="#3AA8DE"/>
</linearGradient>
<linearGradient id="paint2_linear_10389_27508" x1="9.43517" y1="8.84843" x2="10.2003" y2="10.1737" gradientUnits="userSpaceOnUse">
<stop offset="0.0350736" stop-color="#40A8D9"/>
<stop offset="0.4495" stop-color="#69D4F9"/>
<stop offset="0.6095" stop-color="#65D0F7"/>
<stop offset="0.7711" stop-color="#59C5F0"/>
<stop offset="0.9329" stop-color="#45B2E4"/>
<stop offset="1" stop-color="#3AA8DE"/>
</linearGradient>
<linearGradient id="paint3_linear_10389_27508" x1="7.70545" y1="10.9929" x2="8.66891" y2="12.6616" gradientUnits="userSpaceOnUse">
<stop offset="0.0237475" stop-color="#59C2EC"/>
<stop offset="0.0931802" stop-color="#5EC8F0"/>
<stop offset="0.2655" stop-color="#67D1F7"/>
<stop offset="0.5153" stop-color="#69D4F9"/>
<stop offset="0.6476" stop-color="#64CFF6"/>
<stop offset="0.8018" stop-color="#56C2EE"/>
<stop offset="0.9665" stop-color="#3FACE0"/>
<stop offset="1" stop-color="#39A7DD"/>
</linearGradient>
<linearGradient id="paint4_linear_10389_27508" x1="12.4993" y1="10.992" x2="13.4631" y2="12.6614" gradientUnits="userSpaceOnUse">
<stop offset="0.0237475" stop-color="#59C2EC"/>
<stop offset="0.0931802" stop-color="#5EC8F0"/>
<stop offset="0.2655" stop-color="#67D1F7"/>
<stop offset="0.5153" stop-color="#69D4F9"/>
<stop offset="0.6476" stop-color="#64CFF6"/>
<stop offset="0.8018" stop-color="#56C2EE"/>
<stop offset="0.9665" stop-color="#3FACE0"/>
<stop offset="1" stop-color="#39A7DD"/>
</linearGradient>
<linearGradient id="paint5_linear_10389_27508" x1="10.1467" y1="11.5505" x2="11.0224" y2="13.0673" gradientUnits="userSpaceOnUse">
<stop offset="0.0237475" stop-color="#59C2EC"/>
<stop offset="0.0931802" stop-color="#5EC8F0"/>
<stop offset="0.2655" stop-color="#67D1F7"/>
<stop offset="0.5153" stop-color="#69D4F9"/>
<stop offset="0.6476" stop-color="#64CFF6"/>
<stop offset="0.8018" stop-color="#56C2EE"/>
<stop offset="0.9665" stop-color="#3FACE0"/>
<stop offset="1" stop-color="#39A7DD"/>
</linearGradient>
<linearGradient id="paint6_linear_10389_27508" x1="4.40112" y1="-0.0630522" x2="16.5987" y2="21.0638" gradientUnits="userSpaceOnUse">
<stop offset="0.2054" stop-color="#1A7FBC"/>
<stop offset="0.3648" stop-color="#4CB5E3"/>
<stop offset="0.4495" stop-color="#69D4F9"/>
<stop offset="0.5864" stop-color="#53C0EC"/>
<stop offset="0.869" stop-color="#1C8BCC"/>
<stop offset="1" stop-color="#0071BC"/>
</linearGradient>
<clipPath id="clip0_10389_27508">
<rect width="21" height="21" fill="white"/>
</clipPath>
</defs>
</svg>
